<?xml version="1.0" encoding="UTF-8" standalone="no"?>
<svg
   width="206"
   height="206"
   viewBox="0 0 206 206"
   fill="none"
   version="1.1"
   id="svg10"
   sodipodi:docname="icon.svg"
   inkscape:version="1.2.2 (b0a8486541, 2022-12-01)"
   xmlns:inkscape="http://www.inkscape.org/namespaces/inkscape"
   xmlns:sodipodi="http://sodipodi.sourceforge.net/DTD/sodipodi-0.dtd"
   xmlns="http://www.w3.org/2000/svg"
   xmlns:svg="http://www.w3.org/2000/svg">
  <defs
     id="defs14" />
  <sodipodi:namedview
     id="namedview12"
     pagecolor="#ffffff"
     bordercolor="#000000"
     borderopacity="0.25"
     inkscape:showpageshadow="2"
     inkscape:pageopacity="0.0"
     inkscape:pagecheckerboard="0"
     inkscape:deskcolor="#d1d1d1"
     showgrid="false"
     inkscape:zoom="3.2384615"
     inkscape:cx="82.446556"
     inkscape:cy="93.408551"
     inkscape:window-width="1872"
     inkscape:window-height="1011"
     inkscape:window-x="462"
     inkscape:window-y="32"
     inkscape:window-maximized="1"
     inkscape:current-layer="svg10" />
  <!-- BACK SQUARE (visible, offset up-left) -->
  <rect
     x="3"
     y="3"
     width="180"
     height="180"
     rx="12"
     fill="#ffffff"
     stroke="#000000"
     stroke-width="6"
     opacity="0.45"
     id="rect2" />
  <!-- FRONT SQUARE (main container) -->
  <rect
     x="23"
     y="23"
     width="180"
     height="180"
     rx="12"
     fill="#ffffff"
     stroke="#000000"
     stroke-width="6"
     id="rect4" />
  <!-- Perplexity Icon centered inside front square -->
  <g
     transform="matrix(0.35,0,0,0.35,43,43)"
     id="g8">
    <path
       fill-rule="evenodd"
       clip-rule="evenodd"
       d="m 101.008,42 89.982,82.905 v -0.019 -82.6947 h 17.516 V 125.276 L 298.891,42 v 94.524 H 336 v 136.342 h -36.995 v 84.169 l -90.499,-79.51 v 80.423 H 190.99 V 278.836 L 101.11,358 V 272.866 H 64 V 136.524 h 37.008 z m 76.777,111.826 H 81.5159 v 101.738 h 19.5721 v -32.092 z m -59.16,77.323 v 88.243 l 72.365,-63.737 v -90.234 z m 90.385,23.663 v -89.476 l 72.386,65.732 v 41.798 h 0.093 v 45.625 z m 89.995,0.752 h 19.479 V 153.826 h -95.552 l 76.073,68.925 z m -17.63,-119.04 V 81.7983 l -59.398,54.7257 z m -103.454,0 H 118.524 V 81.7983 Z"
       fill="#000000"
       id="path6" />
  </g>
</svg>
